<svg width="50" height="50" viewBox="0 0 50 50" fill="none" xmlns="http://www.w3.org/2000/svg">
<path d="M25 5C13.955 5 5 13.955 5 25C5 33.4733 10.2717 40.71 17.7117 43.6233C17.5367 42.0417 17.3783 39.6133 17.7817 37.8867C18.145 36.3267 20.1267 27.945 20.1267 27.945C20.1267 27.945 19.5283 26.7467 19.5283 24.9767C19.5283 22.195 21.14 20.12 23.1467 20.12C24.8533 20.12 25.6767 21.4017 25.6767 22.9367C25.6767 24.6533 24.585 27.2183 24.02 29.595C23.5483 31.5867 25.0183 33.21 26.9817 33.21C30.5367 33.21 33.2683 29.4617 33.2683 24.0517C33.2683 19.2633 29.8283 15.915 24.915 15.915C19.225 15.915 15.885 20.1833 15.885 24.595C15.885 26.3133 16.5467 28.1567 17.3733 29.16C17.5367 29.3583 17.56 29.5317 17.5117 29.7333C17.36 30.365 17.0233 31.7233 16.9567 32.0017C16.87 32.3683 16.6667 32.445 16.2883 32.2683C13.79 31.105 12.2283 27.4533 12.2283 24.52C12.2283 18.2117 16.8117 12.4167 25.4433 12.4167C32.3817 12.4167 37.7733 17.36 37.7733 23.9683C37.7733 30.8617 33.4267 36.4083 27.395 36.4083C25.3683 36.4083 23.4633 35.355 22.8117 34.1117C22.8117 34.1117 21.8083 37.93 21.565 38.8667C21.1133 40.6033 19.895 42.7817 19.0783 44.11C20.95 44.6867 22.9383 45 25 45C36.045 45 45 36.045 45 25C45 13.955 36.045 5 25 5Z" fill="black"/>
</svg>
