<svg width="64" height="64" viewBox="0 0 64 64" fill="none" xmlns="http://www.w3.org/2000/svg">
<path d="M14.9305 50.36V48.098H15.6325C16.4645 48.098 17.2575 47.877 18.0115 47.435C18.7655 46.993 19.3765 46.265 19.8445 45.251C20.3125 44.237 20.5465 42.859 20.5465 41.117V17.6C20.5465 16.898 20.4555 16.378 20.2735 16.04C20.0915 15.702 19.8445 15.481 19.5325 15.377C19.2465 15.273 18.9215 15.221 18.5575 15.221H16.9195V13.154H30.3745V15.221H28.7365C28.3725 15.221 28.0345 15.286 27.7225 15.416C27.4105 15.52 27.1635 15.754 26.9815 16.118C26.7995 16.456 26.7085 17.002 26.7085 17.756V41.078C26.7085 42.846 26.4225 44.328 25.8505 45.524C25.2785 46.72 24.4985 47.669 23.5105 48.371C22.5485 49.073 21.4435 49.58 20.1955 49.892C18.9475 50.204 17.6605 50.36 16.3345 50.36H14.9305Z" fill="white"/>
<path d="M39.5261 49.89C38.2521 49.89 37.1211 49.76 36.1331 49.5C35.1711 49.24 34.3651 48.863 33.7151 48.369C33.0651 47.875 32.5711 47.29 32.2331 46.614C31.9211 45.938 31.7651 45.197 31.7651 44.391C31.7651 43.871 31.8691 43.416 32.0771 43.026C32.3111 42.636 32.6361 42.337 33.0521 42.129C33.4681 41.895 33.9751 41.778 34.5731 41.778C34.6251 42.844 34.8331 43.858 35.1971 44.82C35.5611 45.756 36.1201 46.523 36.8741 47.121C37.6281 47.693 38.6161 47.979 39.8381 47.979C41.5801 47.979 42.9451 47.563 43.9331 46.731C44.9211 45.873 45.4151 44.651 45.4151 43.065C45.4151 42.103 45.2201 41.297 44.8301 40.647C44.4661 39.971 43.8421 39.347 42.9581 38.775C42.1001 38.203 40.9041 37.605 39.3701 36.981C38.1741 36.487 37.1211 35.954 36.2111 35.382C35.3011 34.81 34.5471 34.186 33.9491 33.51C33.3771 32.834 32.9351 32.067 32.6231 31.209C32.3371 30.351 32.1941 29.389 32.1941 28.323C32.1941 26.841 32.5581 25.58 33.2861 24.54C34.0401 23.474 35.0541 22.668 36.3281 22.122C37.6281 21.55 39.0971 21.264 40.7351 21.264C42.2951 21.264 43.6081 21.472 44.6741 21.888C45.7661 22.304 46.5981 22.85 47.1701 23.526C47.7421 24.176 48.0281 24.878 48.0281 25.632C48.0281 26.464 47.7421 27.101 47.1701 27.543C46.6241 27.959 45.8831 28.167 44.9471 28.167C44.9471 27.361 44.8041 26.581 44.5181 25.827C44.2581 25.073 43.8031 24.449 43.1531 23.955C42.5291 23.461 41.6711 23.214 40.5791 23.214C39.5911 23.214 38.7331 23.396 38.0051 23.76C37.3031 24.124 36.7571 24.644 36.3671 25.32C36.0031 25.97 35.8211 26.75 35.8211 27.66C35.8211 28.7 36.0031 29.584 36.3671 30.312C36.7571 31.014 37.3941 31.651 38.2781 32.223C39.1621 32.769 40.3581 33.354 41.8661 33.978C43.4001 34.602 44.7001 35.291 45.7661 36.045C46.8581 36.773 47.6901 37.618 48.2621 38.58C48.8341 39.542 49.1201 40.699 49.1201 42.051C49.1201 43.715 48.7301 45.132 47.9501 46.302C47.1701 47.446 46.0521 48.33 44.5961 48.954C43.1661 49.578 41.4761 49.89 39.5261 49.89Z" fill="white"/>
</svg>
