<svg width="64" height="64" viewBox="0 0 64 64" fill="none" xmlns="http://www.w3.org/2000/svg">
<path d="M16.0249 48.97C13.9709 48.97 12.1769 48.242 10.6429 46.786C9.10892 45.304 8.34192 43.523 8.34192 41.443C8.34192 39.285 9.14792 37.426 10.7599 35.866C12.4239 34.254 14.3089 33.448 16.4149 33.448C18.0269 33.448 19.3269 33.942 20.3149 34.93C21.2509 35.892 21.7189 37.205 21.7189 38.869C21.7189 40.091 21.1729 41.209 20.0809 42.223C19.0149 43.211 17.8709 43.705 16.6489 43.705C15.6349 43.705 14.7509 43.471 13.9969 43.003C13.1129 42.457 12.6709 41.69 12.6709 40.702C12.6709 40.234 12.8009 39.779 13.0609 39.337C13.3469 38.791 13.6979 38.518 14.1139 38.518C14.2179 38.518 14.2699 38.557 14.2699 38.635C14.2699 38.661 14.1529 38.778 13.9189 38.986C13.6849 39.22 13.5289 39.415 13.4509 39.571C13.2949 39.909 13.2169 40.273 13.2169 40.663C13.2169 41.469 13.5159 42.132 14.1139 42.652C14.7119 43.172 15.4009 43.432 16.1809 43.432C17.4809 43.432 18.5599 42.886 19.4179 41.794C20.2239 40.806 20.6269 39.636 20.6269 38.284C20.6269 36.906 20.2499 35.827 19.4959 35.047C18.7419 34.215 17.6889 33.799 16.3369 33.799C14.3089 33.799 12.6579 34.527 11.3839 35.983C10.1879 37.335 9.58992 39.051 9.58992 41.131C9.58992 44.225 10.9809 46.422 13.7629 47.722C14.6989 48.138 15.6089 48.346 16.4929 48.346H16.9219C17.4419 48.268 17.9229 48.151 18.3649 47.995C18.8329 47.839 19.2489 47.67 19.6129 47.488C20.8869 46.812 22.0959 45.759 23.2399 44.329C24.3839 42.899 25.4759 41.105 26.5159 38.947C27.4259 37.023 28.7909 33.474 30.6109 28.3C31.4429 25.986 32.5869 23.828 34.0429 21.826C35.7329 19.538 37.5269 17.952 39.4249 17.068C36.0449 17.068 33.3539 17.419 31.3519 18.121C28.4659 19.109 26.6069 20.89 25.7749 23.464C25.6709 23.802 25.6189 24.166 25.6189 24.556C25.6189 25.18 25.8139 25.713 26.2039 26.155C26.5939 26.597 27.1139 26.818 27.7639 26.818C29.0379 26.818 29.9219 25.999 30.4159 24.361C30.5199 24.075 30.5719 23.854 30.5719 23.698V23.386C30.5459 23.308 30.5329 23.23 30.5329 23.152C30.5589 23.1 30.5979 23.074 30.6499 23.074C30.7539 23.074 30.8059 23.243 30.8059 23.581C30.8059 24.569 30.5199 25.401 29.9479 26.077C29.3239 26.805 28.5439 27.169 27.6079 27.169C26.7499 27.169 26.0739 26.883 25.5799 26.311C25.0859 25.791 24.8389 25.102 24.8389 24.244C24.8389 24.088 24.8389 23.945 24.8389 23.815C24.8649 23.659 24.8909 23.529 24.9169 23.425C25.4369 20.877 27.2699 19.018 30.4159 17.848C32.7559 17.016 35.4989 16.6 38.6449 16.6C39.8929 16.6 40.5559 16.639 40.6339 16.717C40.5299 16.743 40.3609 16.821 40.1269 16.951C39.9189 17.055 39.6459 17.25 39.3079 17.536C36.5519 19.72 34.5239 22.996 33.2239 27.364C31.5599 32.876 29.8049 37.179 27.9589 40.273C25.0729 45.083 21.6279 47.93 17.6239 48.814C17.3639 48.84 17.1039 48.866 16.8439 48.892C16.5839 48.944 16.3109 48.97 16.0249 48.97ZM42.4779 44.017C42.3739 43.965 42.2699 43.926 42.1659 43.9C42.0619 43.874 41.9449 43.835 41.8149 43.783C40.4369 43.315 39.4489 42.574 38.8509 41.56C36.7189 41.248 35.0029 40.481 33.7029 39.259C32.3509 37.933 31.6749 36.204 31.6749 34.072C31.6749 31.212 32.7149 28.742 34.7949 26.662C36.8489 24.608 39.3189 23.581 42.2049 23.581C44.2329 23.581 45.8319 24.114 47.0019 25.18C47.5739 24.738 48.2759 24.192 49.1079 23.542C49.9659 22.866 50.9539 22.086 52.0719 21.202V20.461C52.0719 17.159 52.8389 15.508 54.3729 15.508C54.7369 15.508 55.0619 15.651 55.3479 15.937C55.6599 16.197 55.8159 16.509 55.8159 16.873C55.8159 17.913 54.7629 19.356 52.6569 21.202C52.7089 21.566 52.8259 22.125 53.0079 22.879C53.1899 23.607 53.4499 24.517 53.7879 25.609C54.3339 27.429 54.6069 28.937 54.6069 30.133C54.6069 33.513 53.0989 36.334 50.0829 38.596C47.2749 40.65 44.1419 41.677 40.6839 41.677C40.4759 41.677 40.2549 41.664 40.0209 41.638C39.7869 41.638 39.5659 41.625 39.3579 41.599C39.8779 42.457 40.6709 43.068 41.7369 43.432C41.9709 43.536 42.1399 43.588 42.2439 43.588C42.3219 43.588 42.4779 43.549 42.7119 43.471C42.9199 43.393 43.0629 43.354 43.1409 43.354C43.2969 43.354 43.3749 43.432 43.3749 43.588C43.3749 43.874 43.0759 44.017 42.4779 44.017ZM52.5789 20.734C54.5029 19.044 55.4649 17.692 55.4649 16.678C55.4649 16.158 55.1269 15.898 54.4509 15.898C53.1769 15.898 52.5399 17.146 52.5399 19.642C52.5399 19.824 52.5399 20.006 52.5399 20.188C52.5399 20.344 52.5529 20.526 52.5789 20.734ZM39.0459 40.975C40.6319 40.975 42.3349 40.507 44.1549 39.571C44.9609 39.155 45.7279 38.7 46.4559 38.206C47.2099 37.686 47.9119 37.114 48.5619 36.49C49.5239 35.58 50.1739 34.761 50.5119 34.033C51.7859 31.563 52.4229 29.015 52.4229 26.389C52.4229 26.571 52.3969 26.272 52.3449 25.492C52.2929 24.712 52.2149 23.438 52.1109 21.67C51.5649 22.086 50.8889 22.619 50.0829 23.269C49.3029 23.893 48.3799 24.634 47.3139 25.492C48.1979 26.376 48.6399 27.468 48.6399 28.768C48.6399 30.51 48.0159 31.992 46.7679 33.214C45.4939 34.462 43.9859 35.086 42.2439 35.086C41.2559 35.086 40.4369 34.865 39.7869 34.423C39.0329 36.139 38.6559 37.634 38.6559 38.908C38.6559 39.298 38.6949 39.662 38.7729 40C38.8509 40.364 38.9419 40.689 39.0459 40.975ZM38.6169 40.975C38.3829 40.429 38.2659 39.792 38.2659 39.064C38.2659 37.634 38.6559 35.983 39.4359 34.111C38.8119 33.513 38.4999 32.785 38.4999 31.927C38.4999 31.615 38.5779 31.251 38.7339 30.835C38.9419 30.289 39.1499 30.016 39.3579 30.016C39.4099 30.016 39.4619 30.042 39.5139 30.094C39.4619 30.25 39.3969 30.341 39.3189 30.367H39.3579C38.9939 30.887 38.8119 31.433 38.8119 32.005C38.8119 32.681 39.0589 33.279 39.5529 33.799C40.7229 31.173 42.9849 28.482 46.3389 25.726C45.1949 24.66 43.7519 24.127 42.0099 24.127C39.5659 24.127 37.3429 25.219 35.3409 27.403C33.3909 29.509 32.4159 31.81 32.4159 34.306C32.4159 36.048 33.0139 37.569 34.2099 38.869C34.8079 39.519 35.4709 40.013 36.1989 40.351C36.9269 40.715 37.7329 40.923 38.6169 40.975ZM42.0879 34.813C43.4919 34.813 44.7919 34.176 45.9879 32.902C47.1839 31.628 47.7819 30.302 47.7819 28.924C47.7819 27.884 47.4049 26.922 46.6509 26.038C45.0389 27.39 43.6739 28.755 42.5559 30.133C41.4379 31.485 40.5669 32.824 39.9429 34.15C40.5409 34.592 41.2559 34.813 42.0879 34.813Z" fill="white"/>
</svg>
